<svg width="343" height="218" viewBox="0 0 343 218" fill="none"
    xmlns="http://www.w3.org/2000/svg">
    <g clip-path="url(#clip0_203_45)">
        <path d="M0 25.6C0 16.6392 0 12.1587 1.7439 8.73615C3.27787 5.72556 5.72556 3.27787 8.73615 1.7439C12.1587 0 16.6392 0 25.6 0H317.4C326.361 0 330.841 0 334.264 1.7439C337.274 3.27787 339.722 5.72556 341.256 8.73615C343 12.1587 343 16.6392 343 25.6V192.4C343 201.361 343 205.841 341.256 209.264C339.722 212.274 337.274 214.722 334.264 216.256C330.841 218 326.361 218 317.4 218H25.6C16.6392 218 12.1587 218 8.73615 216.256C5.72556 214.722 3.27787 212.274 1.7439 209.264C0 205.841 0 201.361 0 192.4V25.6Z" fill="#22577A"/>
        <circle cx="301" cy="154" r="186" fill="white" fill-opacity="0.1"/>
        <circle cx="435" cy="210" r="186" fill="white" fill-opacity="0.2"/>
    </g>
    <defs>
        <clipPath id="clip0_203_45">
            <path d="M0 25.6C0 16.6392 0 12.1587 1.7439 8.73615C3.27787 5.72556 5.72556 3.27787 8.73615 1.7439C12.1587 0 16.6392 0 25.6 0H317.4C326.361 0 330.841 0 334.264 1.7439C337.274 3.27787 339.722 5.72556 341.256 8.73615C343 12.1587 343 16.6392 343 25.6V192.4C343 201.361 343 205.841 341.256 209.264C339.722 212.274 337.274 214.722 334.264 216.256C330.841 218 326.361 218 317.4 218H25.6C16.6392 218 12.1587 218 8.73615 216.256C5.72556 214.722 3.27787 212.274 1.7439 209.264C0 205.841 0 201.361 0 192.4V25.6Z" fill="white"/>
        </clipPath>
    </defs>
</svg>
