<svg width="17" height="20" viewBox="0 0 17 20" fill="none" xmlns="http://www.w3.org/2000/svg">
<path opacity="0.4" d="M4.32271 19L8.5 19L8.5 1L4.32271 1C2.80595 1 1.52977 2.13089 1.38421 3.64065C1.20244 5.52589 1 8.0608 1 10C1 11.9392 1.20244 14.4741 1.38421 16.3593C1.52977 17.8691 2.80595 19 4.32271 19Z" fill="#C4C4C4"/>
<path fill-rule="evenodd" clip-rule="evenodd" d="M4.6333 10.0002C4.6333 10.3868 4.9467 10.7002 5.3333 10.7002L15.3333 10.7002C15.7199 10.7002 16.0333 10.3868 16.0333 10.0002C16.0333 9.6136 15.7199 9.3002 15.3333 9.3002L5.3333 9.3002C4.9467 9.3002 4.6333 9.6136 4.6333 10.0002Z" fill="#222628"/>
<path fill-rule="evenodd" clip-rule="evenodd" d="M16.5756 9.57612C16.3413 9.3418 15.9614 9.3418 15.7271 9.57612L12.5756 12.7276C12.3413 12.9619 12.3413 13.3418 12.5756 13.5761C12.8099 13.8104 13.1898 13.8104 13.4242 13.5761L16.5756 10.4246C16.8099 10.1903 16.8099 9.81043 16.5756 9.57612Z" fill="#222628"/>
<path fill-rule="evenodd" clip-rule="evenodd" d="M16.5756 10.4244C16.3413 10.6587 15.9614 10.6587 15.7271 10.4244L12.5756 7.2729C12.3413 7.03858 12.3413 6.65868 12.5756 6.42437C12.8099 6.19005 13.1898 6.19005 13.4242 6.42437L16.5756 9.57584C16.8099 9.81016 16.8099 10.1901 16.5756 10.4244Z" fill="#222628"/>
<path fill-rule="evenodd" clip-rule="evenodd" d="M9.2002 1.00029C9.2002 1.38689 8.88679 1.70029 8.5002 1.70029L4.3229 1.70029C3.15739 1.70029 2.19124 2.56649 2.08117 3.70813C1.89966 5.59066 1.7002 8.09708 1.7002 10.0003C1.7002 11.9035 1.89966 14.4099 2.08117 16.2925C2.19124 17.4341 3.15739 18.3003 4.32291 18.3003L8.5002 18.3003C8.8868 18.3003 9.2002 18.6137 9.2002 19.0003C9.2002 19.3869 8.8868 19.7003 8.5002 19.7003L4.32291 19.7003C2.4549 19.7003 0.868693 18.3047 0.687634 16.4268C0.505604 14.5389 0.300197 11.9755 0.300197 10.0003C0.300197 8.0251 0.505604 5.46171 0.687632 3.57377C0.868691 1.69588 2.45489 0.300294 4.3229 0.300294L8.5002 0.300293C8.88679 0.300293 9.2002 0.613694 9.2002 1.00029Z" fill="#222628"/>
</svg>
