<svg width="216" height="90" viewBox="0 0 216 90" fill="none" xmlns="http://www.w3.org/2000/svg">
    <path fill-rule="evenodd" clip-rule="evenodd"
        d="M46 89H137C137.515 89 138.017 88.9444 138.5 88.8389C138.983 88.9444 139.485 89 140 89H192C195.866 89 199 85.866 199 82C199 78.134 195.866 75 192 75H186C182.134 75 179 71.866 179 68C179 64.134 182.134 61 186 61H205C208.866 61 212 57.866 212 54C212 50.134 208.866 47 205 47H183C186.866 47 190 43.866 190 40C190 36.134 186.866 33 183 33H119C122.866 33 126 29.866 126 26C126 22.134 122.866 19 119 19H62C58.134 19 55 22.134 55 26C55 29.866 58.134 33 62 33H22C18.134 33 15 36.134 15 40C15 43.866 18.134 47 22 47H47C50.866 47 54 50.134 54 54C54 57.866 50.866 61 47 61H7C3.13401 61 0 64.134 0 68C0 71.866 3.13401 75 7 75H46C42.134 75 39 78.134 39 82C39 85.866 42.134 89 46 89ZM209 89C212.866 89 216 85.866 216 82C216 78.134 212.866 75 209 75C205.134 75 202 78.134 202 82C202 85.866 205.134 89 209 89Z"
        fill="#F3F7FF" />
    <path fill-rule="evenodd" clip-rule="evenodd"
        d="M96.1186 60.3066C96.0404 60.8599 96 61.4252 96 62C96 68.6274 101.373 74 108 74C114.627 74 120 68.6274 120 62C120 61.4252 119.96 60.8599 119.881 60.3066H149V87C149 88.6569 147.657 90 146 90H70C68.3431 90 67 88.6569 67 87V60.3066H96.1186Z"
        fill="white" />
    <path fill-rule="evenodd" clip-rule="evenodd"
        d="M121 60C121 67.1797 115.18 73 108 73C100.82 73 95 67.1797 95 60C95 59.7674 95.0061 59.5362 95.0182 59.3066H67L76.5604 31.0389C76.9726 29.8202 78.1159 29 79.4023 29H136.598C137.884 29 139.027 29.8202 139.44 31.0389L149 59.3066H120.982C120.994 59.5362 121 59.7674 121 60Z"
        fill="white" />
    <path fill-rule="evenodd" clip-rule="evenodd"
        d="M119.098 60.9545C119.098 66.5025 114.129 72 108 72C101.871 72 96.9024 66.5025 96.9024 60.9545C96.9024 60.7748 96.9077 59.5962 96.918 59.4188H76L84.1614 39.5755C84.5132 38.6338 85.4891 38 86.5873 38H129.413C130.511 38 131.487 38.6338 131.839 39.5755L140 59.4188H119.082C119.092 59.5962 119.098 60.7748 119.098 60.9545Z"
        fill="#E8F0FE" />
    <path fill-rule="evenodd" clip-rule="evenodd"
        d="M68.25 59.5123V86C68.25 86.9665 69.0335 87.75 70 87.75H146C146.966 87.75 147.75 86.9665 147.75 86V59.5123L138.255 31.4393C138.015 30.7285 137.348 30.25 136.598 30.25H79.4023C78.6519 30.25 77.985 30.7285 77.7446 31.4393L68.25 59.5123Z"
        stroke="#1F64E7" stroke-width="2.5" />
    <path
        d="M81 59C84.9366 59 89.1849 59 93.7449 59C95.6212 59 95.6212 60.3186 95.6212 61C95.6212 67.6274 101.117 73 107.897 73C114.677 73 120.173 67.6274 120.173 61C120.173 60.3186 120.173 59 122.05 59H147M73.5737 59H76H73.5737Z"
        stroke="#1F64E7" stroke-width="2.5" stroke-linecap="round" stroke-linejoin="round" />
    <path d="M133.1 6.30273L122 18.7559M107.1 2V18.7559V2ZM81 6.30273L92.0996 18.7559L81 6.30273Z" stroke="#75A4FE"
        stroke-width="2.5" stroke-linecap="round" stroke-linejoin="round" />
</svg>