<svg width="18" height="20" viewBox="0 0 18 20" fill="none" xmlns="http://www.w3.org/2000/svg">
<path d="M1.40353 15.3217C1.44018 14.9875 1.45851 14.8204 1.48146 14.7011C1.76002 13.2538 2.93062 12.2795 4.40441 12.2682C4.52585 12.2673 4.71545 12.2812 5.09466 12.309C6.27246 12.3955 7.59919 12.4662 8.7856 12.4662C10.0239 12.4662 11.3971 12.3891 12.5909 12.2976C12.9566 12.2696 13.1394 12.2555 13.2583 12.2559C14.6546 12.2597 15.7826 13.126 16.1465 14.4741C16.1775 14.5889 16.2071 14.7476 16.2663 15.0649C16.3316 15.4148 16.3642 15.5898 16.3769 15.7319C16.5241 17.3755 15.3164 18.8294 13.6737 18.986C13.5316 18.9996 13.3536 18.9996 12.9977 18.9996L8.7856 18.9996H4.70008C4.37618 18.9996 4.21424 18.9996 4.08182 18.9878C2.51016 18.8482 1.31522 17.5151 1.34782 15.9376C1.35057 15.8047 1.36822 15.6437 1.40353 15.3217Z" fill="#C4C4C4" fill-opacity="0.4"/>
<path d="M5 5C5 2.79086 6.79086 1 9 1C11.2091 1 13 2.79086 13 5V5.57143C13 7.46498 11.465 9 9.57143 9H8.42857C6.53502 9 5 7.46498 5 5.57143V5Z" fill="#C4C4C4" fill-opacity="0.4"/>
<path fill-rule="evenodd" clip-rule="evenodd" d="M13.2562 12.9562C13.1729 12.9559 13.0276 12.9664 12.6442 12.9958C11.4421 13.088 10.0491 13.1665 8.78541 13.1665C7.57468 13.1665 6.22892 13.0944 5.04323 13.0074C4.64565 12.9783 4.49467 12.9678 4.40958 12.9685C3.26934 12.9772 2.38417 13.714 2.16866 14.8337C2.15251 14.9176 2.13761 15.0477 2.09916 15.3983C2.06215 15.7358 2.04942 15.8584 2.04748 15.9523C2.02248 17.1618 2.9386 18.1838 4.14354 18.2908C4.23715 18.2992 4.36038 18.2999 4.69988 18.2999L12.9975 18.2999C13.3707 18.2999 13.5067 18.299 13.607 18.2895C14.8664 18.1694 15.7924 17.0547 15.6795 15.7947C15.6705 15.6943 15.6464 15.5604 15.578 15.1936C15.5159 14.8607 15.4923 14.7376 15.4705 14.6568C15.1889 13.6134 14.3369 12.9591 13.2562 12.9562ZM12.5851 11.5963C12.9055 11.5717 13.1128 11.5558 13.26 11.5562C14.972 11.5608 16.376 12.6391 16.8221 14.2919C16.8605 14.4341 16.8947 14.6177 16.9468 14.8969L16.9622 14.9796C17.0199 15.2885 17.0582 15.4939 17.074 15.6698C17.2555 17.6968 15.7659 19.49 13.7399 19.6832C13.5641 19.6999 13.3552 19.6999 13.0409 19.6999L4.69988 19.6999C4.68665 19.6999 4.67361 19.6999 4.66076 19.6999C4.37443 19.6999 4.18359 19.6999 4.01971 19.6854C2.08133 19.5132 0.607571 17.869 0.647776 15.9234C0.651175 15.7589 0.671999 15.5692 0.703242 15.2846C0.704644 15.2718 0.706066 15.2589 0.707508 15.2457C0.709082 15.2314 0.710629 15.2172 0.712152 15.2033C0.744351 14.9095 0.765473 14.7167 0.793888 14.5691C1.13549 12.7943 2.5915 11.5824 4.39886 11.5685C4.54924 11.5674 4.76361 11.5831 5.0958 11.6075C5.11215 11.6087 5.12878 11.61 5.1457 11.6112C6.31561 11.697 7.62331 11.7665 8.78541 11.7665C9.99831 11.7665 11.3516 11.6908 12.5371 11.5999L12.5851 11.5963Z" fill="#222628"/>
<path fill-rule="evenodd" clip-rule="evenodd" d="M4.2998 4.9998C4.2998 2.40407 6.40407 0.299805 8.9998 0.299805C11.5955 0.299805 13.6998 2.40407 13.6998 4.9998V5.57123C13.6998 7.85138 11.8514 9.6998 9.57123 9.6998H8.42838C6.14823 9.6998 4.2998 7.85138 4.2998 5.57123V4.9998ZM8.9998 1.6998C7.17726 1.6998 5.6998 3.17726 5.6998 4.9998V5.57123C5.6998 7.07818 6.92143 8.2998 8.42838 8.2998H9.57123C11.0782 8.2998 12.2998 7.07818 12.2998 5.57123V4.9998C12.2998 3.17726 10.8223 1.6998 8.9998 1.6998Z" fill="#222628"/>
</svg>
