<svg xmlns="http://www.w3.org/2000/svg" width="25" height="24.993" viewBox="0 0 25 24.993">
    <g id="vxxcd" transform="translate(-369.199 -344.4)">
        <path id="Path_401" data-name="Path 401" d="M381.667,369.393A12.5,12.5,0,1,1,394.2,356.846,12.523,12.523,0,0,1,381.667,369.393Zm1.152-16.257v-2.95a1.622,1.622,0,0,0-.028-.37,1.131,1.131,0,0,0-1.265-.846,1.115,1.115,0,0,0-.945,1.116c0,2.232,0,4.471-.007,6.7a1.31,1.31,0,0,0,.412,1c.533.519,1.052,1.052,1.578,1.578.576.576,1.144,1.159,1.734,1.727a1.124,1.124,0,1,0,1.557-1.621c-.952-.967-1.912-1.919-2.879-2.879a.511.511,0,0,1-.163-.4C382.819,355.176,382.819,354.152,382.819,353.136Z" transform="translate(0 0)" fill="#c6c6c6"/>
    </g>
</svg>
